<?xml version="1.0" standalone="no"?>
<!DOCTYPE svg PUBLIC "-//W3C//DTD SVG 20010904//EN"
 "http://www.w3.org/TR/2001/REC-SVG-20010904/DTD/svg10.dtd">
<svg version="1.0" xmlns="http://www.w3.org/2000/svg"
 width="640.000000pt" height="640.000000pt" viewBox="0 0 640.000000 640.000000"
 preserveAspectRatio="xMidYMid meet">

<g transform="translate(0.000000,640.000000) scale(0.100000,-0.100000)"
fill="#000000" stroke="none">
<path d="M2840 5973 c-179 -181 -548 -553 -820 -828 -272 -275 -636 -642 -808
-816 l-313 -316 662 -669 c1388 -1401 1599 -1610 1608 -1595 5 7 253 259 552
560 300 300 805 808 1123 1129 l578 582 -994 1003 c-546 551 -1053 1064 -1128
1140 l-135 137 -325 -327z m370 -1696 l56 -172 183 -3 c151 -2 182 -5 179 -17
-2 -7 -67 -61 -144 -118 l-142 -105 54 -164 c30 -89 55 -170 57 -178 4 -30
-32 -11 -167 89 -76 55 -142 101 -146 101 -4 0 -70 -45 -145 -101 -76 -55
-144 -103 -151 -106 -23 -9 -17 25 36 182 28 82 50 157 50 167 0 16 -53 58
-237 192 -29 21 -53 42 -53 47 0 5 80 9 185 9 166 0 185 2 193 18 5 9 31 87
58 172 45 143 60 177 74 164 2 -3 30 -83 60 -177z"/>
<path d="M6040 3147 c-29 -15 -70 -72 -70 -99 0 -10 7 -30 16 -43 22 -34 68
-33 139 2 44 22 60 25 82 17 24 -8 28 -16 31 -50 3 -47 -21 -75 -83 -98 -31
-11 -36 -15 -23 -21 26 -10 89 25 115 64 29 43 29 73 0 107 -30 34 -67 34
-136 0 -28 -14 -59 -26 -70 -26 -26 0 -49 34 -43 65 5 30 56 75 83 75 11 0 17
5 14 10 -8 13 -25 12 -55 -3z"/>
<path d="M246 2857 c-42 -89 -76 -165 -76 -169 0 -5 6 -8 14 -8 25 0 327 150
321 160 -3 5 -67 -21 -143 -56 -75 -36 -143 -68 -150 -71 -7 -3 17 57 54 133
82 172 77 161 66 168 -5 3 -44 -68 -86 -157z"/>
<path d="M5850 2955 l-65 -65 105 -105 c58 -58 109 -105 115 -105 16 0 130
118 122 127 -4 4 -33 -19 -65 -50 l-58 -57 -42 43 c-23 23 -42 47 -42 52 0 5
21 31 47 57 26 26 44 51 40 55 -4 4 -31 -17 -60 -45 l-53 -52 -39 40 -39 40
53 54 c29 30 52 59 50 65 -2 6 -33 -18 -69 -54z"/>
<path d="M5717 2793 c-16 -3 -52 -27 -85 -58 l-57 -54 105 -105 c57 -58 109
-106 115 -106 16 0 80 70 99 107 20 40 20 64 2 108 -30 72 -107 118 -179 108z
m96 -48 c72 -49 89 -134 40 -197 -51 -66 -50 -66 -154 39 l-94 94 48 45 c59
53 101 58 160 19z"/>
<path d="M615 2480 c-65 -65 -116 -123 -112 -127 8 -7 247 225 247 239 0 19
-23 0 -135 -112z"/>
<path d="M5462 2567 c-71 -40 -76 -138 -9 -214 118 -134 308 -31 228 125 -10
20 -27 44 -37 53 -53 46 -134 62 -182 36z m100 -17 c43 -12 91 -63 108 -114
10 -31 9 -42 -7 -74 -60 -124 -264 2 -229 142 6 25 47 55 76 56 8 0 32 -5 52
-10z"/>
<path d="M5300 2391 c0 -4 42 -48 93 -97 l93 -90 -141 33 c-146 34 -189 39
-183 24 7 -19 219 -213 226 -206 4 3 -37 50 -91 102 -54 53 -93 93 -85 91 51
-20 301 -69 309 -61 5 5 -33 48 -100 111 -107 100 -121 111 -121 93z"/>
<path d="M892 2207 l-122 -122 68 -68 c61 -60 92 -81 92 -60 0 4 -28 36 -62
70 l-62 63 49 50 49 50 62 -61 c34 -34 64 -57 67 -52 3 5 -18 34 -48 63 -30
30 -55 59 -55 65 0 13 72 85 85 85 5 0 35 -26 67 -57 32 -31 61 -54 65 -50 4
4 -24 39 -63 77 l-69 70 -123 -123z"/>
<path d="M5007 2103 c-4 -4 34 -49 85 -101 71 -71 87 -92 68 -88 -14 3 -76 17
-139 31 -120 26 -151 30 -151 17 0 -14 205 -212 220 -212 8 0 -30 46 -85 101
-55 56 -93 99 -85 97 48 -17 303 -69 308 -64 3 4 -43 56 -104 117 -60 60 -113
106 -117 102z"/>
<path d="M1367 1963 c-4 -4 9 -24 29 -44 l37 -38 -113 -115 c-62 -64 -110
-119 -106 -123 4 -4 58 44 121 107 l115 114 40 -39 c24 -24 40 -33 40 -24 0
19 -154 172 -163 162z"/>
<path d="M4800 1893 c0 -15 205 -213 220 -213 8 0 -35 50 -95 110 -102 102
-125 121 -125 103z"/>
<path d="M4670 1775 c0 -6 140 -288 146 -294 2 -2 7 -2 10 1 3 3 -7 30 -21 58
l-27 53 44 43 43 44 54 -25 c30 -14 56 -23 59 -20 10 9 -10 21 -147 84 -123
56 -161 69 -161 56z m124 -62 l48 -25 -33 -34 c-18 -19 -36 -34 -39 -34 -3 0
-20 30 -38 66 -32 64 -32 65 -10 58 13 -3 45 -18 72 -31z"/>
<path d="M4560 1653 c0 -4 21 -29 47 -55 l46 -47 -58 -61 -59 -60 -52 51 c-28
28 -54 47 -57 42 -8 -12 210 -229 220 -220 4 4 -18 32 -47 62 l-54 55 54 55
c30 30 59 55 65 55 6 0 33 -22 60 -50 26 -27 53 -46 58 -43 5 3 -40 54 -99
114 -101 101 -124 120 -124 102z"/>
<path d="M1651 1446 c-68 -68 -119 -126 -114 -129 6 -4 58 43 117 103 64 65
106 100 102 87 -13 -46 -65 -263 -71 -299 -6 -29 -4 -38 7 -38 17 0 238 221
238 238 0 6 -3 12 -7 12 -4 0 -54 -46 -111 -102 -57 -57 -102 -94 -99 -83 3
11 19 81 37 155 17 74 33 140 35 146 2 6 0 16 -4 22 -4 7 -54 -36 -130 -112z"/>
<path d="M4353 1444 c-87 -43 -94 -160 -13 -239 35 -35 46 -39 100 -43 73 -5
103 11 130 71 25 56 12 71 -14 16 -12 -24 -32 -49 -46 -56 -87 -44 -200 32
-200 134 0 57 23 90 71 104 21 7 36 16 33 20 -8 13 -25 11 -61 -7z"/>
<path d="M4199 1288 c0 -7 0 -59 1 -115 1 -57 -2 -103 -7 -103 -4 0 -31 23
-59 51 -28 28 -54 47 -57 42 -3 -5 43 -58 102 -117 60 -60 111 -104 114 -99 4
5 -12 27 -33 48 -33 32 -40 46 -40 78 0 36 2 39 23 34 83 -20 178 -30 188 -20
7 7 -3 12 -38 17 -26 4 -76 12 -110 18 l-63 10 0 84 c0 49 -4 84 -10 84 -5 0
-10 -6 -11 -12z"/>
<path d="M3989 1077 c-45 -30 -65 -88 -49 -146 30 -112 163 -169 241 -104 36
31 65 91 51 105 -6 6 -12 -1 -16 -17 -12 -46 -37 -74 -76 -86 -49 -15 -96 0
-140 46 -27 28 -34 44 -38 89 -4 49 -2 57 22 80 14 15 39 29 56 32 16 4 27 10
24 15 -9 15 -40 10 -75 -14z"/>
<path d="M2075 1011 c-92 -44 -155 -80 -148 -84 6 -4 37 5 68 20 l55 27 47
-47 47 -47 -27 -56 c-18 -36 -25 -60 -19 -66 12 -12 7 -22 91 160 64 138 75
174 53 171 -4 0 -79 -35 -167 -78z m124 -18 c-17 -38 -34 -72 -40 -77 -9 -10
-79 49 -79 66 0 7 127 76 142 78 4 0 -6 -30 -23 -67z"/>
<path d="M3778 864 c-118 -64 -41 -260 108 -272 51 -4 55 -3 89 31 19 19 35
46 36 59 3 68 -11 106 -58 150 -51 48 -122 61 -175 32z m140 -36 c36 -22 72
-83 72 -122 0 -79 -75 -120 -149 -82 -42 22 -87 79 -95 119 -18 98 74 144 172
85z"/>
<path d="M2457 642 c-64 -64 -117 -124 -117 -132 0 -8 50 35 110 95 61 60 110
105 110 100 0 -6 -14 -55 -30 -110 -35 -118 -36 -130 -12 -120 13 5 213 65
218 65 1 0 -45 -46 -102 -102 -92 -90 -121 -128 -96 -128 4 0 61 54 127 120
147 148 146 156 -19 107 -64 -19 -116 -31 -116 -28 0 3 14 57 32 118 21 74 29
116 22 123 -6 6 -50 -31 -127 -108z"/>
<path d="M3530 610 c-1 -8 48 -61 107 -117 l108 -102 62 61 c34 34 59 66 56
71 -3 5 -30 -16 -61 -47 -30 -31 -57 -56 -60 -56 -4 0 -53 46 -109 102 -57 57
-103 96 -103 88z"/>
<path d="M3390 473 l-51 -48 111 -110 111 -110 49 52 c45 46 50 56 50 97 0 38
-4 48 -25 62 -15 10 -38 15 -60 12 -33 -4 -35 -2 -35 24 0 36 -32 68 -69 68
-21 0 -44 -13 -81 -47z m108 11 c33 -23 29 -67 -10 -110 l-33 -35 -43 44 -43
44 41 36 c45 41 56 44 88 21z m126 -96 c23 -32 20 -60 -11 -101 -41 -53 -51
-53 -100 -5 l-44 43 45 43 c51 48 86 54 110 20z"/>
</g>
</svg>
